PathFileType	4	(X/Y/Z)	C:/Users/beibeiliu/ov580/test_trc/User1\sequence.17_training_dense_right.trc
DataRate	CameraRate	NumFrames	NumMarkers	Units	OrigDataRate	OrigDataStartFrame	OrigNumFrames
120	120	8	19	mm	120	256	292
Frame#	Time	ThumbCMC			ThumbMCP			ThumbIP			ThumbTip			IndexMCP			IndexPIP			IndexTip			MiddleMCP			MiddlePIP			MiddleTip			RingMCP			RingPIP			RingTip			PinkyMCP			PinkyPIP			PinkyTip			BackHand1			BackHand2			BackHand3	
		X0	Y0	Z0	X1	Y1	Z1	X2	Y2	Z2	X3	Y3	Z3	X4	Y4	Z4	X5	Y5	Z5	X6	Y6	Z6	X7	Y7	Z7	X8	Y8	Z8	X9	Y9	Z9	X10	Y10	Z10	X11	Y11	Z11	X12	Y12	Z12	X13	Y13	Z13	X14	Y14	Z14	X15	Y15	Z15	X16	Y16	Z16	X17	Y17	Z17	X18	Y18	Z18	
255	2.125	194.497	58.5006	60.8911	186.547	75.2693	37.1057	187.45	91.0317	15.9379	191.327	105.948	4.54069	169.073	21.5788	-16.6711	159.695	15.0832	-40.6108	151.593	3.86041	-65.5281	138.047	4.82205	-9.20982	106.675	17.2826	-0.140574	111.758	33.2315	33.2091	128.708	-7.94888	14.9931	105.087	14.6607	34.1523	124.111	26.31	55.6455	124.616	-21.8107	35.2569	112.252	3.43535	48.1095	132.542	20.6295	62.7763	181.446	-15.0199	44.2071	200.103	-6.58207	77.717	199.817	22.3461	47.1892	
256	2.13333	197.765	52.9164	56.6614	191.799	71.8305	37.9548	195.4	85.6055	15.9481	199.348	99.152	6.56116	169.359	17.5956	-18.1223	162.527	13.8653	-39.0789	153.044	2.63326	-62.3671	140.346	2.28022	-7.20382	107.743	18.7354	0.235408	115.611	38.231	34.2794	125.531	-2.25816	12.518	105.982	13.9832	32.8014	124.381	28.7465	56.0753	121.542	-17.2745	34.7355	114.385	7.98362	47.1638	131.578	23.1264	63.3327	182.762	-14.6363	44.4706	199.939	-9.64856	74.5089	203	15.0173	50.0866	
257	2.14167	204.386	52.7624	60.2487	197.38	67.5399	39.9958	204.004	83.4214	19.6271	210.51	95.5563	6.06509	173.443	19.0948	-19.822	162.339	8.48284	-41.8028	154.819	0.645247	-62.2746	142.099	6.48459	-10.3906	112.098	21.908	-2.27784	118.637	38.2003	34.3424	128.101	-2.34476	12.4327	108.498	18.6368	31.8164	126.389	31.1206	55.2997	124.184	-16.2812	35.0762	113.536	6.76184	46.231	135.728	24.2589	65.7002	180.623	-18.2388	43.7217	199.401	-13.9348	75.5877	204.085	13.5855	50.6831	
258	2.15	206.109	49.4103	61.805	206.964	68.3666	38.9354	211.348	80.0316	18.9495	220.372	94.1994	7.16988	176.906	15.1811	-16.8252	166.112	7.80509	-41.7277	157.053	-1.0036	-59.4835	143.521	3.17756	-8.09207	114.069	26.5001	-1.5508	122.765	39.0128	34.506	126.174	-4.26958	14.3722	110.296	20.8241	30.937	130.645	30.4456	57.6349	129.253	-16.4263	33.9945	113.869	8.15399	48.3514	137.85	25.3479	63.5733	184.695	-19.2874	44.8301	197.458	-17.6914	76.8235	207.669	12.1845	48.4903	
259	2.15833	210.115	47.3841	60.648	207.335	63.5365	38.8985	215.181	76.0119	18.7847	224.171	90.4198	9.91558	180.384	15.74	-20.2267	170.267	9.26988	-41.3631	161.942	-0.945728	-64.4841	143.368	3.07902	-9.30472	118.865	25.8784	-3.06985	122.544	36.3526	33.3033	133.888	-3.72359	12.0858	113.736	17.2942	28.0311	130.504	32.2566	53.7571	126.228	-17.0463	33.9575	117.884	10.3142	47.4495	137.531	26.29	62.6936	184.439	-23.2279	43.9681	199.086	-18.3947	80.658	210.111	12.9721	51.0888	
260	2.16667	212.49	47.1883	62.1106	209.611	62.3397	43.1187	219.251	76.0324	20.276	228.816	90.2741	10.7402	181.482	9.97146	-18.8369	173.185	3.95943	-38.0514	164.53	-4.24624	-63.8547	151.408	0.431063	-7.66578	120.639	20.4419	-3.69897	126.243	36.5845	32.3126	135.537	-4.89312	13.0202	116.457	18.9704	28.5671	132.861	30.3884	56.2731	128.663	-18.5019	34.1021	119.476	5.8498	45.9232	139.756	22.5626	63.5621	186.722	-23.3511	48.703	202.44	-17.8801	80.197	210.709	7.03303	48.6348	
261	2.175	211.757	43.6723	63.0287	209.406	61.8475	38.6265	213.943	73.9949	14.4022	220.629	87.7978	3.17374	184.927	9.49413	-17.2593	178.521	6.33675	-38.4849	167.779	-6.71276	-61.1295	152.108	-0.416019	-10.1935	122.216	15.5765	-1.27571	129.556	34.3857	34.1708	136.107	-8.77314	13.5296	117.481	11.4322	29.2768	135.83	27.332	57.0439	136.737	-23.5743	34.3432	121.418	2.28538	46.5091	147.086	19.7534	62.0045	190.001	-25.7821	46.5939	205.81	-17.1491	78.9865	212.498	7.72994	51.288	
262	2.18333	210.535	44.9225	59.0831	203.91	63.9061	42.3275	206.892	77.4301	17.9456	208.74	90.574	4.45713	186.026	8.82545	-19.8227	177.761	1.27849	-38.3353	171.153	-9.29175	-61.25	152.597	-5.87293	-7.45373	122.031	12.9309	0.17344	128.398	27.85	33.544	140.886	-13.9564	14.2591	120.434	10.34	30.2471	136.218	20.812	59.1066	137.447	-25.9342	34.8181	124.256	-1.97378	45.1296	144.035	14.5888	62.7125	192.588	-27.9032	50.6664	209.398	-21.2397	79.5408	214.351	5.44101	48.7228	
